<svg width="63" height="81" viewBox="0 0 63 81" fill="none" xmlns="http://www.w3.org/2000/svg">
<g filter="url(#filter0_d)">
<path d="M30.1029 44.9715C32.0831 44.9715 33.5417 44.5102 34.4786 43.5876C35.4155 42.665 35.884 41.2023 35.884 39.1995C35.884 37.1968 35.3516 35.8128 34.287 35.0477C33.2223 34.2826 31.5721 33.9001 29.3363 33.9001H28.6017V44.9715H30.1029ZM35.1174 27.723C35.1174 24.9777 33.5737 23.605 30.4861 23.605C28.9743 23.605 27.7074 24.0213 26.6853 24.8539C26.3659 25.1015 26.1104 25.4052 25.9188 25.7653C25.7484 26.1253 25.6632 26.4179 25.6632 26.6429C25.6632 26.8454 25.7484 26.9467 25.9188 26.9467C26.0891 26.9467 26.2062 26.8567 26.2701 26.6767C26.5256 25.9791 27.026 25.6303 27.7713 25.6303C28.2397 25.6303 28.6336 25.8103 28.953 26.1703C29.2937 26.5304 29.4641 27.0255 29.4641 27.6555C29.4641 28.2856 29.2511 28.7919 28.8253 29.1745C28.3994 29.557 27.8884 29.7483 27.2922 29.7483C26.696 29.7483 26.1636 29.5008 25.6952 29.0057C25.248 28.5106 25.0244 27.8806 25.0244 27.1155C25.0244 25.9003 25.5781 24.8989 26.6853 24.1113C27.7926 23.3012 29.3895 22.8962 31.4763 22.8962C33.563 22.8962 35.2878 23.29 36.6505 24.0776C38.0133 24.8652 38.6947 26.0466 38.6947 27.6218C38.6947 29.1745 38.1943 30.4459 37.1935 31.436C36.1927 32.4261 34.8725 33.09 33.233 33.4275V33.63C35.0855 33.6751 36.5866 34.1364 37.7365 35.014C38.8863 35.8916 39.4612 37.1968 39.4612 38.9295C39.4612 43.3175 36.5015 45.5116 30.582 45.5116H22.9484V44.9715H25.28V32.5162C26.5363 32.8987 28.0268 33.09 29.7515 33.09C31.4976 33.09 32.8284 32.5949 33.744 31.6048C34.6596 30.5922 35.1174 29.2982 35.1174 27.723Z" fill="#2A363B" stroke="#2A363B"/>
<path d="M31.2052 71L57.4103 15.763M31.2052 71L5 15.763M31.2052 71L12.5673 20.9052M31.2052 71L49.843 20.9052M57.4103 15.763L31.2052 1M57.4103 15.763L49.843 20.9052M31.2052 1L5 15.763M31.2052 1L12.5673 20.9052M31.2052 1L49.843 20.9052M5 15.763L12.5673 20.9052M12.5673 20.9052H49.843" stroke="#2A363B"/>
</g>
<defs>
<filter id="filter0_d" x="0.34845" y="0.426086" width="61.7134" height="79.7404" filterUnits="userSpaceOnUse" color-interpolation-filters="sRGB">
<feFlood flood-opacity="0" result="BackgroundImageFix"/>
<feColorMatrix in="SourceAlpha" type="matrix" values="0 0 0 0 0 0 0 0 0 0 0 0 0 0 0 0 0 0 127 0" result="hardAlpha"/>
<feOffset dy="4"/>
<feGaussianBlur stdDeviation="2"/>
<feColorMatrix type="matrix" values="0 0 0 0 0.6875 0 0 0 0 0.246354 0 0 0 0 0.246354 0 0 0 1 0"/>
<feBlend mode="normal" in2="BackgroundImageFix" result="effect1_dropShadow"/>
<feBlend mode="normal" in="SourceGraphic" in2="effect1_dropShadow" result="shape"/>
</filter>
</defs>
</svg>
